<?xml version="1.0" standalone="no"?>
<!DOCTYPE svg PUBLIC "-//W3C//DTD SVG 20010904//EN"
 "http://www.w3.org/TR/2001/REC-SVG-20010904/DTD/svg10.dtd">
<svg version="1.0" xmlns="http://www.w3.org/2000/svg"
 width="840.000000pt" height="329.000000pt" viewBox="0 0 840.000000 329.000000"
 preserveAspectRatio="xMidYMid meet">
<metadata>
Created by potrace 1.16, written by Peter Selinger 2001-2019
</metadata>
<g transform="translate(0.000000,329.000000) scale(0.100000,-0.100000)"
fill="#000000" stroke="none">
<path d="M140 1650 l0 -1560 60 0 60 0 0 1560 0 1560 -60 0 -60 0 0 -1560z"/>
<path d="M3884 3131 c-61 -28 -74 -64 -74 -204 0 -132 -4 -127 103 -127 l57 0
-1 53 c-2 80 -10 100 -47 109 -39 11 -40 28 -3 70 39 46 53 75 46 98 -8 25
-28 25 -81 1z"/>
<path d="M6959 3001 c-283 -30 -623 -156 -845 -314 -108 -77 -267 -227 -334
-315 -62 -81 -187 -333 -229 -460 -58 -176 -83 -340 -88 -593 -7 -296 18 -592
47 -563 5 5 20 97 35 204 59 453 141 700 321 973 94 141 282 329 428 426 263
175 569 279 963 326 169 21 196 15 68 -14 -698 -161 -1187 -574 -1459 -1233
-33 -80 -86 -234 -86 -250 0 -23 195 -89 410 -139 620 -146 1037 32 1377 588
36 59 122 209 191 333 206 371 299 509 485 716 89 100 99 132 47 159 -74 38
-424 127 -570 145 -116 14 -656 22 -761 11z"/>
<path d="M859 2993 c-10 -2 -19 -19 -23 -41 -3 -20 -6 -254 -6 -519 l0 -483
260 0 260 0 0 75 0 75 -170 0 -170 0 0 450 0 450 -67 -1 c-38 -1 -75 -3 -84
-6z"/>
<path d="M1500 2475 l0 -525 80 0 80 0 0 525 0 525 -80 0 -80 0 0 -525z"/>
<path d="M1880 2476 l0 -526 95 0 95 0 0 230 0 230 33 1 c17 0 88 4 156 8 139
8 151 14 151 83 l0 38 -170 0 -170 0 0 155 0 155 221 0 221 0 -7 68 c-4 37 -8
68 -9 68 0 1 -139 5 -308 9 l-308 7 0 -526z"/>
<path d="M2650 2475 l0 -525 285 0 285 0 0 75 0 75 -205 0 -205 0 0 155 0 155
185 0 185 0 0 24 c0 13 -3 44 -6 70 l-7 46 -173 0 -174 0 0 104 c0 57 -3 124
-6 150 l-7 46 207 0 206 0 0 75 0 75 -285 0 -285 0 0 -525z"/>
<path d="M4130 2475 l0 -525 80 0 80 0 1 93 c1 50 4 218 8 371 l6 280 244
-372 244 -372 94 0 94 0 -3 510 c-2 398 -6 512 -16 522 -7 7 -45 14 -87 16
l-75 4 0 -382 0 -382 -252 379 -253 378 -82 3 -83 3 0 -526z"/>
<path d="M929 1552 l-87 -3 -6 -37 c-3 -20 -6 -254 -6 -519 l0 -483 90 0 90 0
0 230 0 230 170 0 170 0 0 65 0 65 -170 0 -170 0 0 155 0 155 221 0 222 0 -6
66 c-2 36 -6 67 -8 68 -6 5 -413 11 -510 8z"/>
<path d="M1980 1550 c-91 -12 -135 -28 -199 -71 -281 -188 -325 -583 -90 -818
125 -126 331 -180 518 -136 182 43 335 196 371 372 7 31 10 107 9 172 -4 112
-6 120 -42 194 -65 132 -173 229 -295 267 -69 21 -197 31 -272 20z m256 -193
c90 -46 152 -137 174 -255 28 -154 -53 -322 -192 -397 -42 -23 -68 -30 -133
-33 -100 -5 -172 20 -242 83 -158 141 -160 399 -5 554 66 66 116 82 247 78 85
-3 108 -7 151 -30z"/>
<path d="M3103 1546 c-92 -23 -164 -65 -244 -145 -117 -116 -149 -199 -149
-381 0 -306 210 -510 525 -510 159 0 266 43 370 146 100 100 148 223 148 379
0 147 -44 262 -140 366 -118 127 -332 188 -510 145z m230 -166 c94 -29 157
-82 199 -167 32 -65 33 -72 33 -183 0 -103 -3 -121 -26 -171 -48 -102 -139
-169 -256 -188 -138 -22 -278 44 -350 166 -20 35 -27 65 -35 156 -13 133 -5
170 50 251 45 68 105 113 180 137 75 24 126 23 205 -1z"/>
<path d="M3920 1035 l0 -525 143 0 c351 0 487 38 610 169 86 91 127 204 127
345 0 144 -46 273 -131 369 -50 57 -154 111 -257 132 -81 17 -297 35 -414 35
l-78 0 0 -525z m366 355 c62 -5 127 -15 145 -23 52 -22 119 -95 153 -167 28
-59 31 -74 31 -160 0 -174 -53 -280 -169 -340 -67 -34 -72 -35 -207 -38 l-139
-4 0 371 0 371 38 0 c20 0 87 -4 148 -10z"/>
</g>
</svg>
